<svg width="58" height="81" viewBox="0 0 58 81" fill="none" xmlns="http://www.w3.org/2000/svg">
<rect y="12.7385" width="58" height="68.0851" rx="5" fill="#535353"/>
<rect x="3.41176" y="16.1427" width="51.1765" height="61.2766" rx="5" fill="white"/>
<path d="M15.353 9.63205C15.353 8.52748 16.2484 7.63205 17.353 7.63205H44.0588C45.1634 7.63205 46.0588 8.52748 46.0588 9.63205V19.5469H15.353V9.63205Z" fill="#8E8E8E"/>
<ellipse cx="31.5588" cy="6.78099" rx="5.97059" ry="5.95745" fill="#8E8E8E"/>
<ellipse cx="31.5588" cy="6.781" rx="2.55882" ry="2.55319" fill="white"/>
<rect x="37.5294" y="9.3342" width="3.41176" height="1.70213" fill="white"/>
<rect x="37.5294" y="9.3342" width="3.41176" height="1.70213" fill="white"/>
<rect x="37.5294" y="9.3342" width="3.41176" height="1.70213" fill="white"/>
<rect x="37.5294" y="9.3342" width="3.41176" height="1.70213" fill="white"/>
<rect x="42.6471" y="9.3342" width="1.70588" height="1.70213" fill="white"/>
<rect x="42.6471" y="9.3342" width="1.70588" height="1.70213" fill="white"/>
<rect x="42.6471" y="9.3342" width="1.70588" height="1.70213" fill="white"/>
<rect x="42.6471" y="9.3342" width="1.70588" height="1.70213" fill="white"/>
<path d="M21.2061 27.2491L21.7141 24.7051H20.7261L20.7781 24.4491H23.0421L22.9901 24.7051H22.0061L21.4981 27.2491H21.2061ZM23.6162 27.2691C23.4215 27.2691 23.2522 27.2331 23.1082 27.1611C22.9668 27.0864 22.8562 26.9824 22.7762 26.8491C22.6988 26.7158 22.6602 26.5584 22.6602 26.3771C22.6602 26.1371 22.7122 25.9238 22.8162 25.7371C22.9202 25.5478 23.0642 25.3998 23.2482 25.2931C23.4322 25.1838 23.6415 25.1291 23.8762 25.1291C24.0708 25.1291 24.2388 25.1651 24.3802 25.2371C24.5242 25.3091 24.6348 25.4118 24.7122 25.5451C24.7922 25.6784 24.8322 25.8358 24.8322 26.0171C24.8322 26.2571 24.7802 26.4718 24.6762 26.6611C24.5722 26.8478 24.4282 26.9958 24.2442 27.1051C24.0628 27.2144 23.8535 27.2691 23.6162 27.2691ZM23.6362 27.0171C23.8122 27.0171 23.9682 26.9758 24.1042 26.8931C24.2428 26.8078 24.3508 26.6904 24.4282 26.5411C24.5082 26.3918 24.5482 26.2224 24.5482 26.0331C24.5482 25.8251 24.4868 25.6638 24.3642 25.5491C24.2442 25.4344 24.0748 25.3771 23.8562 25.3771C23.6828 25.3771 23.5268 25.4198 23.3882 25.5051C23.2495 25.5904 23.1402 25.7078 23.0602 25.8571C22.9828 26.0038 22.9442 26.1731 22.9442 26.3651C22.9442 26.5704 23.0042 26.7304 23.1242 26.8451C23.2468 26.9598 23.4175 27.0171 23.6362 27.0171ZM25.248 27.2491L25.808 24.4491H26.872C27.1547 24.4491 27.3933 24.4971 27.588 24.5931C27.7853 24.6864 27.9347 24.8184 28.036 24.9891C28.14 25.1571 28.192 25.3571 28.192 25.5891C28.192 25.8344 28.1507 26.0598 28.068 26.2651C27.988 26.4678 27.8707 26.6424 27.716 26.7891C27.564 26.9358 27.3813 27.0491 27.168 27.1291C26.9547 27.2091 26.716 27.2491 26.452 27.2491H25.248ZM25.592 26.9931H26.46C26.756 26.9931 27.0107 26.9331 27.224 26.8131C27.44 26.6931 27.6053 26.5291 27.72 26.3211C27.8373 26.1104 27.896 25.8704 27.896 25.6011C27.896 25.4224 27.8573 25.2664 27.78 25.1331C27.7027 24.9971 27.5853 24.8918 27.428 24.8171C27.2733 24.7424 27.0773 24.7051 26.84 24.7051H26.048L25.592 26.9931ZM29.4287 27.2691C29.234 27.2691 29.0647 27.2331 28.9207 27.1611C28.7793 27.0864 28.6687 26.9824 28.5887 26.8491C28.5113 26.7158 28.4727 26.5584 28.4727 26.3771C28.4727 26.1371 28.5247 25.9238 28.6287 25.7371C28.7327 25.5478 28.8767 25.3998 29.0607 25.2931C29.2447 25.1838 29.454 25.1291 29.6887 25.1291C29.8833 25.1291 30.0513 25.1651 30.1927 25.2371C30.3367 25.3091 30.4473 25.4118 30.5247 25.5451C30.6047 25.6784 30.6447 25.8358 30.6447 26.0171C30.6447 26.2571 30.5927 26.4718 30.4887 26.6611C30.3847 26.8478 30.2407 26.9958 30.0567 27.1051C29.8753 27.2144 29.666 27.2691 29.4287 27.2691ZM29.4487 27.0171C29.6247 27.0171 29.7807 26.9758 29.9167 26.8931C30.0553 26.8078 30.1633 26.6904 30.2407 26.5411C30.3207 26.3918 30.3607 26.2224 30.3607 26.0331C30.3607 25.8251 30.2993 25.6638 30.1767 25.5491C30.0567 25.4344 29.8873 25.3771 29.6687 25.3771C29.4953 25.3771 29.3393 25.4198 29.2007 25.5051C29.062 25.5904 28.9527 25.7078 28.8727 25.8571C28.7953 26.0038 28.7567 26.1731 28.7567 26.3651C28.7567 26.5704 28.8167 26.7304 28.9367 26.8451C29.0593 26.9598 29.23 27.0171 29.4487 27.0171ZM32.0474 27.2491L32.6394 24.2811H32.9234L32.3314 27.2491H32.0474ZM33.1216 27.2491L33.5376 25.1491H33.8216L33.4056 27.2491H33.1216ZM33.8016 24.6851C33.7456 24.6851 33.6989 24.6664 33.6616 24.6291C33.6269 24.5918 33.6096 24.5478 33.6096 24.4971C33.6096 24.4384 33.6296 24.3878 33.6696 24.3451C33.7123 24.3024 33.7656 24.2811 33.8296 24.2811C33.8856 24.2811 33.9323 24.2984 33.9696 24.3331C34.0069 24.3678 34.0256 24.4118 34.0256 24.4651C34.0256 24.5291 34.0043 24.5824 33.9616 24.6251C33.9189 24.6651 33.8656 24.6851 33.8016 24.6851ZM34.8078 27.2691C34.6371 27.2691 34.4758 27.2451 34.3238 27.1971C34.1718 27.1491 34.0545 27.0878 33.9718 27.0131L34.1078 26.7891C34.1878 26.8611 34.2931 26.9184 34.4238 26.9611C34.5545 27.0011 34.6918 27.0211 34.8358 27.0211C35.0358 27.0211 35.1891 26.9878 35.2958 26.9211C35.4051 26.8544 35.4598 26.7624 35.4598 26.6451C35.4598 26.5651 35.4305 26.5051 35.3718 26.4651C35.3158 26.4224 35.2425 26.3904 35.1518 26.3691C35.0611 26.3451 34.9651 26.3224 34.8638 26.3011C34.7625 26.2798 34.6665 26.2531 34.5758 26.2211C34.4851 26.1864 34.4105 26.1344 34.3518 26.0651C34.2958 25.9958 34.2678 25.9024 34.2678 25.7851C34.2678 25.6518 34.3051 25.5358 34.3798 25.4371C34.4571 25.3384 34.5638 25.2624 34.6998 25.2091C34.8358 25.1558 34.9958 25.1291 35.1798 25.1291C35.3131 25.1291 35.4451 25.1464 35.5758 25.1811C35.7065 25.2158 35.8118 25.2638 35.8918 25.3251L35.7718 25.5531C35.6891 25.4891 35.5931 25.4438 35.4838 25.4171C35.3745 25.3878 35.2651 25.3731 35.1558 25.3731C34.9611 25.3731 34.8105 25.4091 34.7038 25.4811C34.5998 25.5504 34.5478 25.6424 34.5478 25.7571C34.5478 25.8371 34.5758 25.8984 34.6318 25.9411C34.6905 25.9838 34.7651 26.0171 34.8558 26.0411C34.9465 26.0651 35.0425 26.0878 35.1438 26.1091C35.2478 26.1278 35.3438 26.1544 35.4318 26.1891C35.5225 26.2238 35.5958 26.2744 35.6518 26.3411C35.7105 26.4051 35.7398 26.4958 35.7398 26.6131C35.7398 26.7518 35.7011 26.8704 35.6238 26.9691C35.5465 27.0651 35.4371 27.1398 35.2958 27.1931C35.1571 27.2438 34.9945 27.2691 34.8078 27.2691ZM36.8169 27.2691C36.6969 27.2691 36.5943 27.2438 36.5089 27.1931C36.4236 27.1398 36.3636 27.0651 36.3289 26.9691C36.2969 26.8731 36.2943 26.7584 36.3209 26.6251L36.7049 24.6851H36.9889L36.6049 26.6131C36.5783 26.7438 36.5876 26.8451 36.6329 26.9171C36.6809 26.9891 36.7676 27.0251 36.8929 27.0251C36.9516 27.0251 37.0089 27.0171 37.0649 27.0011C37.1209 26.9824 37.1716 26.9544 37.2169 26.9171L37.2849 27.1331C37.2183 27.1838 37.1436 27.2198 37.0609 27.2411C36.9783 27.2598 36.8969 27.2691 36.8169 27.2691ZM36.1929 25.3851L36.2369 25.1491H37.5369L37.4889 25.3851H36.1929Z" fill="black"/>
<rect x="8.5294" y="33.1639" width="40.9412" height="3.40426" fill="#D9D9D9"/>
<rect x="8.5294" y="39.9725" width="40.9412" height="3.40426" fill="#D9D9D9"/>
<rect x="8.5294" y="46.781" width="40.9412" height="3.40426" fill="#D9D9D9"/>
</svg>
